<svg width="460" height="486" viewBox="0 0 460 486" fill="none" xmlns="http://www.w3.org/2000/svg">
<path d="M445.131 268.046H357.491L295.745 116.82C305.797 103.898 301.543 88.1012 301.543 70.8718C301.543 36.4078 277.131 7.69466 244.105 0.511997V0.515097C235.5 0.511718 237.183 0.511719 230 0.511719C222.823 0.511719 224 0.512661 215.385 0.515097V0.511997C182.359 7.68906 157.948 36.4078 157.948 70.8718C157.948 88.1012 153.693 103.899 163.745 116.82L102 268.046H14.36C5.74547 268.046 0 283.791 0 292.406C0 301.021 5.74481 316.766 14.36 316.766H94.824L33.0787 467.992C31.6412 475.169 45.9484 483.79 53.1308 485.222H56.0005C61.7453 485.222 78.9224 480.914 80.3605 473.732L144.975 316.759H205.387V335.478C205.387 344.092 221.132 349.838 229.747 349.838C238.362 349.838 254.107 344.093 254.107 335.478V316.759H314.519L377.697 473.732C379.134 480.909 394.874 485.222 402.057 485.222H406.364C413.541 483.784 429.286 475.17 426.416 467.992L364.671 316.753H445.135C453.749 316.753 459.495 301.008 459.495 292.393C459.495 283.773 453.75 268.033 445.135 268.033L445.131 268.046ZM229.744 234.967C221.129 234.967 205.384 240.712 205.384 249.327V268.046H152.155L209.592 135.487C219.644 139.794 219.948 141 230 141C240.052 141 241.284 139.794 249.904 135.487L307.341 268.046H254.101V249.327C254.101 242.145 238.357 234.967 229.741 234.967H229.744Z" fill="white"/>
</svg>
